<svg width="711" height="128" viewBox="0 0 711 128" fill="none" xmlns="http://www.w3.org/2000/svg">
<path d="M219.71 21.6312C201.122 21.6312 185.487 31.3357 180.101 45.2964L198.169 54.1494C201.643 45.4666 209.634 40.0186 219.71 40.0186C230.133 40.0186 237.256 45.6369 237.256 54.1494V57.044L206.507 63.5134C187.571 67.5993 176.627 76.6231 176.627 90.2433C176.627 105.906 189.83 117.484 210.676 117.484C221.968 117.484 231.523 113.397 238.472 105.225V115.441H258.103V54.1494C258.103 35.0812 242.467 21.6312 219.71 21.6312ZM213.108 101.31C204.075 101.31 198.342 97.0535 198.342 90.073C198.342 84.4548 202.859 80.0281 210.676 78.3256L237.256 72.5371V78.496C237.256 91.4348 227.006 101.31 213.108 101.31Z" fill="black"/>
<path d="M347.473 36.7838C353.032 27.4198 363.802 21.6312 376.658 21.6312C396.115 21.6312 410.012 35.4217 410.012 55.852V115.441H389.166V60.9596C389.166 48.1907 381.87 40.5293 370.751 40.5293C359.807 40.5293 352.337 48.1907 352.337 60.9596V115.441H331.49V60.9596C331.49 48.1907 324.194 40.5293 313.076 40.5293C302.131 40.5293 294.835 48.1907 294.835 60.9596V115.441H273.988V23.6743H293.619V34.911C298.483 26.2281 307.517 21.6312 318.809 21.6312C331.317 21.6312 341.566 27.2496 347.473 36.7838Z" fill="black"/>
<path d="M499.391 36.7838C504.95 27.4198 515.721 21.6312 528.576 21.6312C548.032 21.6312 561.933 35.4217 561.933 55.852V115.441H541.087V60.9596C541.087 48.1907 533.786 40.5293 522.671 40.5293C511.726 40.5293 504.255 48.1907 504.255 60.9596V115.441H483.409V60.9596C483.409 48.1907 476.113 40.5293 464.994 40.5293C454.05 40.5293 446.754 48.1907 446.754 60.9596V115.441H425.907V23.6743H445.537V34.911C450.402 26.2281 459.436 21.6312 470.728 21.6312C483.235 21.6312 493.485 27.2496 499.391 36.7838Z" fill="black"/>
<path fill-rule="evenodd" clip-rule="evenodd" d="M621.691 116.463C648.964 116.463 670.855 96.203 670.855 68.4519C670.855 40.7005 649.142 20.6106 621.691 20.6106C594.072 20.6106 572.531 40.7005 572.531 68.4519C572.531 96.203 594.245 116.463 621.691 116.463ZM594.245 68.6218C594.245 85.4772 605.71 97.5648 621.691 97.5648C637.499 97.5648 649.142 85.4772 649.142 68.6218C649.142 51.7668 637.499 39.5087 621.691 39.5087C605.71 39.5087 594.245 51.7668 594.245 68.6218Z" fill="black"/>
<path d="M711 114.42H689.459V91.4357H711V114.42Z" fill="black"/>
<path d="M1.76562 50.9793C1.76562 22.8243 24.5905 0 52.7462 0C56.7685 0 60.0294 3.26063 60.0294 7.28279V47.9807C60.0294 53.659 55.426 58.2624 49.7476 58.2624H9.04859C5.02633 58.2624 1.76562 55.0015 1.76562 50.9793Z" fill="url(#paint0_linear_17_15)"/>
<path d="M125.358 112.111C125.358 120.399 118.639 127.118 110.35 127.118H83.8666C75.5785 127.118 68.8596 120.399 68.8596 112.111V7.06211C68.8596 3.16181 72.0212 0 75.9218 0C103.224 0 125.358 22.1327 125.358 49.4347V77.6831V112.111Z" fill="url(#paint1_linear_17_15)"/>
<path d="M61.7948 97.1032C61.7948 80.0395 47.9616 66.2065 30.8974 66.2065C13.8332 66.2065 0 80.0395 0 97.1032C0 114.167 13.8332 128 30.8974 128C47.9616 128 61.7948 114.167 61.7948 97.1032Z" fill="url(#paint2_linear_17_15)"/>
<defs>
<linearGradient id="paint0_linear_17_15" x1="1.76562" y1="29.1311" x2="60.0294" y2="29.1311" gradientUnits="userSpaceOnUse">
<stop stop-color="#EC6F66"/>
<stop offset="1" stop-color="#F3A183"/>
</linearGradient>
<linearGradient id="paint1_linear_17_15" x1="68.8596" y1="63.5591" x2="125.358" y2="63.5591" gradientUnits="userSpaceOnUse">
<stop stop-color="#396AFC"/>
<stop offset="1" stop-color="#2948FF"/>
</linearGradient>
<linearGradient id="paint2_linear_17_15" x1="5.19772e-07" y1="128" x2="59.452" y2="58.2375" gradientUnits="userSpaceOnUse">
<stop stop-color="#A2ABBB"/>
<stop offset="1" stop-color="#E0EAFC"/>
</linearGradient>
</defs>
</svg>
