<svg width="166" height="166" viewBox="0 0 166 166" fill="none" xmlns="http://www.w3.org/2000/svg">
<g clip-path="url(#clip0_4005_247)">
<path d="M159.479 53.0422C155.277 43.8344 149.2 35.5418 141.689 28.5795C134.178 21.6171 125.237 15.9813 115.307 12.0869C105.377 8.19261 94.4607 6.03979 83 6.03979C71.5393 6.03979 60.6233 8.19261 50.693 12.0869C40.7626 15.9813 31.8216 21.6171 24.3109 28.5795C16.8001 35.5418 10.7233 43.8344 6.52513 53.0422C2.32326 62.25 0 72.3731 0 83C0 93.627 2.32326 103.75 6.52143 112.958C10.7196 122.166 16.8001 130.458 24.3071 137.421C31.8179 144.383 40.7589 150.019 50.6893 153.913C60.6196 157.807 71.5356 159.96 82.9963 159.96C94.457 159.96 105.373 157.807 115.303 153.913C125.234 150.019 134.175 144.383 141.685 137.421C149.196 130.458 155.273 122.166 159.475 112.958C163.673 103.75 165.996 93.627 165.996 83C165.996 72.3731 163.673 62.25 159.475 53.0422H159.479ZM148.407 111.62C144.831 120.376 139.714 128.239 133.193 134.99C126.675 141.741 119.083 147.043 110.631 150.745C101.879 154.58 92.5821 156.522 83 156.522C73.4179 156.522 64.1212 154.576 55.3692 150.745C46.9172 147.04 39.325 141.741 32.8072 134.99C26.2895 128.239 21.1687 120.376 17.593 111.62C13.8914 102.553 12.0128 92.9267 12.0128 83C12.0128 73.0734 13.8914 63.4469 17.593 54.3799C21.1687 45.6241 26.2858 37.7613 32.8072 31.0102C39.325 24.259 46.9172 18.9567 55.3729 15.255C64.1249 11.42 73.4217 9.47466 83.0037 9.47466C92.5858 9.47466 101.882 11.42 110.635 15.255C119.086 18.9567 126.679 24.259 133.196 31.0102C139.714 37.7613 144.835 45.6241 148.411 54.3799C152.112 63.4469 153.991 73.0734 153.991 83C153.991 92.9267 152.112 102.553 148.411 111.62H148.407Z" fill="#313233"/>
<path d="M122.562 43.4379C117.423 38.2985 111.442 34.2671 104.776 31.4473C97.8769 28.5275 90.5514 27.0491 82.9962 27.0491C76.4007 27.0491 69.9756 28.1792 63.858 30.4098C62.9725 30.7322 62.0906 31.0805 61.2161 31.4473C58.7076 32.5071 56.0546 33.8929 53.4238 35.5417C53.3941 35.5603 53.3608 35.5788 53.3311 35.601C53.2385 35.6603 53.1459 35.7196 53.0532 35.7789C45.1719 40.7959 37.5908 48.1511 34.9414 56.2325C33.0776 61.9202 33.6964 67.4301 36.783 72.6101C36.7904 72.6213 36.7941 72.6287 36.8015 72.6398C43.5268 83.8967 56.162 87.1685 68.4823 87.1685C68.7195 87.1685 68.9566 87.1685 69.1938 87.1685C69.8496 87.1759 72.8176 87.1759 76.5934 87.1759C84.5673 87.1759 96.1354 87.1648 97.1507 87.1574C105.703 87.2648 113.725 86.3237 118.056 95.1646C122.169 103.554 119.027 111.465 115.663 116.622C111.135 123.57 104.335 128.713 99.4814 131.207C94.2568 133.893 88.7136 135.253 82.9999 135.253C77.2085 135.253 71.5874 133.889 66.2888 131.203C61.1457 128.594 56.5214 124.848 52.5456 120.076C48.5475 115.277 45.4054 109.682 43.2081 103.45L42.7709 102.212H30.3579L31.4473 104.787C34.2671 111.45 38.2985 117.434 43.4378 122.573C48.5772 127.712 54.5576 131.744 61.2235 134.564C68.1229 137.484 75.4484 138.962 83.0036 138.962C90.5588 138.962 97.8844 137.484 104.784 134.564C107.503 133.415 110.394 131.881 113.236 130.051C121.013 125.041 128.442 117.767 131.058 109.786C131.173 109.43 131.281 109.075 131.377 108.723C132.833 103.413 132.107 98.266 129.217 93.4083C122.499 82.1292 109.849 78.85 97.5212 78.85C97.2841 78.85 97.0469 78.85 96.8098 78.85C96.1539 78.8425 93.186 78.8425 89.4102 78.8425C81.4363 78.8425 69.8681 78.8537 68.8529 78.8611C60.3009 78.7536 52.2788 79.6948 47.9472 70.8538C43.8343 62.4649 46.9764 54.5539 50.3409 49.3961C54.8689 42.4485 61.6682 37.3055 66.5222 34.8118C71.743 32.1291 77.2863 30.7655 82.9962 30.7655C82.9962 30.7655 82.9999 30.7655 83.0036 30.7655C88.7951 30.7655 94.4161 32.1291 99.7148 34.8155C104.858 37.4241 109.482 41.1702 113.458 45.9427C117.456 50.7411 120.598 56.3362 122.795 62.5686L123.233 63.8062H135.646L134.556 61.231C131.737 54.5688 127.705 48.5846 122.566 43.4453L122.562 43.4379Z" fill="#313233"/>
<path d="M96.5245 57.7C95.7575 57.222 94.9719 56.7921 94.1679 56.4068C92.9117 55.8065 91.6223 55.3211 90.3106 54.9543C88.5654 54.4318 86.4941 54.1021 84.0634 54.1021C80.1616 54.1021 76.3784 54.8654 72.8139 56.3734C69.3716 57.8296 66.2813 59.9121 63.6283 62.5651C60.9753 65.2181 58.8892 68.3084 57.4367 71.7507C57.3885 71.8655 57.3477 71.9841 57.2996 72.099C59.3116 72.8067 62.1165 72.9067 66.3851 72.9104C67.1225 72.9104 67.8821 72.9104 68.6528 72.9216C69.5384 69.9202 70.7908 67.2301 72.3804 64.9291C73.9477 62.6577 75.7596 60.8866 77.7605 59.6601C79.7688 58.4299 81.8883 57.8074 84.0634 57.8074C85.8567 57.8074 87.6205 58.0483 89.3324 58.53C93.7751 59.8787 95.3313 62.6503 95.4091 62.7911L95.9242 63.799H101.612C100.597 61.2867 98.8255 59.1339 96.5245 57.7037V57.7Z" fill="#313233"/>
<path d="M72.8139 109.631C76.3784 111.139 80.1616 111.902 84.0633 111.902C86.4978 111.902 88.5653 111.568 90.3106 111.05C91.6223 110.683 92.9117 110.197 94.1679 109.597C94.9719 109.212 95.7575 108.782 96.5245 108.304C98.8255 106.87 100.597 104.721 101.612 102.209H95.9242L95.4091 103.217C95.3313 103.357 93.7751 106.133 89.3324 107.478C87.6205 107.959 85.8567 108.2 84.0633 108.2C81.8883 108.2 79.7651 107.578 77.7605 106.348C75.7559 105.121 73.9477 103.346 72.3804 101.079C70.7908 98.7776 69.5383 96.0912 68.6565 93.0973C68.6009 93.0973 68.5453 93.0973 68.4897 93.0973C64.2545 93.0973 60.2861 92.7378 56.6104 92.0227C56.8586 92.7749 57.1291 93.5197 57.4404 94.2533C58.8966 97.6956 60.979 100.786 63.632 103.439C66.285 106.092 69.3753 108.178 72.8176 109.631H72.8139Z" fill="#313233"/>
</g>
<defs>
<clipPath id="clip0_4005_247">
<rect width="166" height="166" fill="white"/>
</clipPath>
</defs>
</svg>
